<mxfile modified="2020-03-14T07:33:02.322Z" host="app.diagrams.net" agent="Mozilla/5.0 (Windows NT 10.0; Win64; x64) AppleWebKit/537.36 (KHTML, like Gecko) Chrome/80.0.3987.132 Safari/537.36" etag="MmoxG9cVmxdR-bb80xM3" version="12.8.4" type="github">
  <diagram id="Kh02D2IHpJgUnBtiDbiR" name="Page-1">
    <mxGraphModel dx="868" dy="450" grid="1" gridSize="10" guides="1" tooltips="1" connect="1" arrows="1" fold="1" page="1" pageScale="1" pageWidth="827" pageHeight="1169" math="0" shadow="0">
      <root>
        <mxCell id="0" />
        <mxCell id="1" parent="0" />
        <mxCell id="0RrtjifXPjOEfjAlMMHi-2" value="" style="shape=cube;whiteSpace=wrap;html=1;boundedLbl=1;backgroundOutline=1;darkOpacity=0.05;darkOpacity2=0.1;fillColor=#dae8fc;strokeColor=#6c8ebf;size=28;direction=south;fontSize=17;fontStyle=0" parent="1" vertex="1">
          <mxGeometry x="596" y="1227" width="36" height="90" as="geometry" />
        </mxCell>
        <mxCell id="0RrtjifXPjOEfjAlMMHi-3" value="" style="shape=cube;whiteSpace=wrap;html=1;boundedLbl=1;backgroundOutline=1;darkOpacity=0.05;darkOpacity2=0.1;fillColor=#fff2cc;strokeColor=#d6b656;size=41;direction=south;fontSize=17;fontStyle=0" parent="1" vertex="1">
          <mxGeometry x="515" y="1210" width="50" height="148" as="geometry" />
        </mxCell>
        <mxCell id="0RrtjifXPjOEfjAlMMHi-8" value="" style="shape=cube;whiteSpace=wrap;html=1;boundedLbl=1;backgroundOutline=1;darkOpacity=0.05;darkOpacity2=0.1;fillColor=#d5e8d4;strokeColor=#82b366;size=3;direction=south;fontSize=17;fontStyle=0" parent="1" vertex="1">
          <mxGeometry x="682" y="1256" width="10" height="47" as="geometry" />
        </mxCell>
        <mxCell id="0RrtjifXPjOEfjAlMMHi-10" value="" style="shape=cube;whiteSpace=wrap;html=1;boundedLbl=1;backgroundOutline=1;darkOpacity=0.05;darkOpacity2=0.1;fillColor=#f8cecc;strokeColor=#b85450;size=9;direction=south;fontSize=17;fontStyle=0" parent="1" vertex="1">
          <mxGeometry x="543" y="1268" width="8" height="35" as="geometry" />
        </mxCell>
        <mxCell id="0RrtjifXPjOEfjAlMMHi-11" value="" style="endArrow=none;html=1;exitX=0;exitY=0;exitDx=8;exitDy=8;exitPerimeter=0;entryX=0.621;entryY=1.015;entryDx=0;entryDy=0;entryPerimeter=0;fontSize=17;fontStyle=0" parent="1" source="0RrtjifXPjOEfjAlMMHi-10" target="0RrtjifXPjOEfjAlMMHi-2" edge="1">
          <mxGeometry width="50" height="50" relative="1" as="geometry">
            <mxPoint x="640" y="1417" as="sourcePoint" />
            <mxPoint x="577" y="1285" as="targetPoint" />
          </mxGeometry>
        </mxCell>
        <mxCell id="0RrtjifXPjOEfjAlMMHi-12" value="" style="endArrow=none;html=1;exitX=0;exitY=0;exitDx=0;exitDy=0;exitPerimeter=0;entryX=0.621;entryY=0.993;entryDx=0;entryDy=0;entryPerimeter=0;fontSize=17;fontStyle=0" parent="1" source="0RrtjifXPjOEfjAlMMHi-10" target="0RrtjifXPjOEfjAlMMHi-2" edge="1">
          <mxGeometry width="50" height="50" relative="1" as="geometry">
            <mxPoint x="590" y="1387" as="sourcePoint" />
            <mxPoint x="589" y="1285" as="targetPoint" />
          </mxGeometry>
        </mxCell>
        <mxCell id="0RrtjifXPjOEfjAlMMHi-13" value="" style="endArrow=none;html=1;entryX=0;entryY=0;entryDx=35;entryDy=8;entryPerimeter=0;exitX=0.619;exitY=1.019;exitDx=0;exitDy=0;exitPerimeter=0;fontSize=17;fontStyle=0" parent="1" source="0RrtjifXPjOEfjAlMMHi-2" target="0RrtjifXPjOEfjAlMMHi-10" edge="1">
          <mxGeometry width="50" height="50" relative="1" as="geometry">
            <mxPoint x="580" y="1282" as="sourcePoint" />
            <mxPoint x="560" y="1437" as="targetPoint" />
          </mxGeometry>
        </mxCell>
        <mxCell id="0RrtjifXPjOEfjAlMMHi-14" value="" style="endArrow=none;html=1;entryX=0;entryY=0;entryDx=27;entryDy=0;entryPerimeter=0;exitX=0.619;exitY=0.998;exitDx=0;exitDy=0;exitPerimeter=0;fontSize=17;fontStyle=0" parent="1" source="0RrtjifXPjOEfjAlMMHi-2" target="0RrtjifXPjOEfjAlMMHi-10" edge="1">
          <mxGeometry width="50" height="50" relative="1" as="geometry">
            <mxPoint x="580" y="1289" as="sourcePoint" />
            <mxPoint x="590" y="1297" as="targetPoint" />
          </mxGeometry>
        </mxCell>
        <mxCell id="0RrtjifXPjOEfjAlMMHi-37" value="&lt;font color=&quot;#7f00ff&quot; style=&quot;font-size: 17px;&quot;&gt;&lt;span style=&quot;font-size: 17px;&quot;&gt;depth=64&lt;br style=&quot;font-size: 17px;&quot;&gt;&lt;/span&gt;&lt;/font&gt;&lt;span style=&quot;color: rgb(127, 0, 255); font-size: 17px;&quot;&gt;size=14*4&lt;/span&gt;&lt;font color=&quot;#7f00ff&quot; style=&quot;font-size: 17px;&quot;&gt;&lt;span style=&quot;font-size: 17px;&quot;&gt;&lt;br style=&quot;font-size: 17px;&quot;&gt;2*2 conv&lt;br style=&quot;font-size: 17px;&quot;&gt;conv1&lt;br style=&quot;font-size: 17px;&quot;&gt;conv2&lt;/span&gt;&lt;/font&gt;" style="text;html=1;strokeColor=none;fillColor=none;align=center;verticalAlign=middle;whiteSpace=wrap;rounded=0;fontFamily=Times New Roman;fontSize=17;fontStyle=0" parent="1" vertex="1">
          <mxGeometry x="500" y="1404" width="70" height="88" as="geometry" />
        </mxCell>
        <mxCell id="0RrtjifXPjOEfjAlMMHi-38" value="&lt;font color=&quot;#7f00ff&quot; style=&quot;font-size: 17px;&quot;&gt;&lt;span style=&quot;font-size: 17px;&quot;&gt;size=7*2&lt;br style=&quot;font-size: 17px;&quot;&gt;maxpool&lt;br style=&quot;font-size: 17px;&quot;&gt;2*2&lt;br style=&quot;font-size: 17px;&quot;&gt;&lt;/span&gt;&lt;/font&gt;" style="text;html=1;strokeColor=none;fillColor=none;align=center;verticalAlign=middle;whiteSpace=wrap;rounded=0;fontFamily=Times New Roman;fontSize=17;fontStyle=0" parent="1" vertex="1">
          <mxGeometry x="581" y="1457" width="66" height="30" as="geometry" />
        </mxCell>
        <mxCell id="0RrtjifXPjOEfjAlMMHi-47" value="" style="shape=cube;whiteSpace=wrap;html=1;boundedLbl=1;backgroundOutline=1;darkOpacity=0.05;darkOpacity2=0.1;fillColor=#e1d5e7;strokeColor=#9673a6;size=41;direction=south;fontSize=17;rotation=0;fontStyle=0" parent="1" vertex="1">
          <mxGeometry x="420" y="1227" width="40" height="131" as="geometry" />
        </mxCell>
        <mxCell id="CtdJrrE9eR4Qstlal3_W-13" value="" style="endArrow=classic;html=1;endSize=4;fontSize=17;fontStyle=0" parent="1" edge="1">
          <mxGeometry width="50" height="50" relative="1" as="geometry">
            <mxPoint x="536" y="1395" as="sourcePoint" />
            <mxPoint x="535.5" y="1357" as="targetPoint" />
          </mxGeometry>
        </mxCell>
        <mxCell id="CtdJrrE9eR4Qstlal3_W-14" value="" style="endArrow=classic;html=1;endSize=4;fontSize=17;fontStyle=0" parent="1" edge="1">
          <mxGeometry width="50" height="50" relative="1" as="geometry">
            <mxPoint x="611" y="1395" as="sourcePoint" />
            <mxPoint x="610.5" y="1357" as="targetPoint" />
          </mxGeometry>
        </mxCell>
        <mxCell id="CtdJrrE9eR4Qstlal3_W-15" value="" style="endArrow=classic;html=1;endSize=4;fontSize=17;fontStyle=0" parent="1" edge="1">
          <mxGeometry width="50" height="50" relative="1" as="geometry">
            <mxPoint x="425.15999999999997" y="1395" as="sourcePoint" />
            <mxPoint x="424.65999999999997" y="1357" as="targetPoint" />
          </mxGeometry>
        </mxCell>
        <mxCell id="_HbQwfRfAWt0mscIxknr-3" value="" style="shape=flexArrow;endArrow=classic;html=1;endWidth=15.428571428571429;endSize=4;startWidth=15.428571428571429;startSize=6.668571428571428;width=10;entryX=0;entryY=0;entryDx=64.5;entryDy=10;entryPerimeter=0;fontSize=17;fontStyle=0" parent="1" edge="1">
          <mxGeometry width="50" height="50" relative="1" as="geometry">
            <mxPoint x="470" y="1284.16" as="sourcePoint" />
            <mxPoint x="510" y="1283.66" as="targetPoint" />
          </mxGeometry>
        </mxCell>
        <mxCell id="KZooT0G6KpFMYx8SuihJ-7" value="&lt;span style=&quot;font-size: 17px;&quot;&gt;&lt;font color=&quot;#7f00ff&quot; face=&quot;Times New Roman&quot; style=&quot;font-size: 17px;&quot;&gt;FC1&lt;br style=&quot;font-size: 17px;&quot;&gt;FC2&lt;br style=&quot;font-size: 17px;&quot;&gt;softmax&lt;br style=&quot;font-size: 17px;&quot;&gt;&lt;/font&gt;&lt;/span&gt;&lt;span style=&quot;color: rgb(127, 0, 255); font-family: &amp;quot;times new roman&amp;quot;; font-size: 17px;&quot;&gt;size=4&lt;/span&gt;&lt;span style=&quot;font-size: 17px;&quot;&gt;&lt;font color=&quot;#7f00ff&quot; face=&quot;Times New Roman&quot; style=&quot;font-size: 17px;&quot;&gt;&lt;br style=&quot;font-size: 17px;&quot;&gt;&lt;/font&gt;&lt;/span&gt;" style="text;html=1;strokeColor=none;fillColor=none;align=center;verticalAlign=middle;whiteSpace=wrap;rounded=0;fontSize=17;fontStyle=0" parent="1" vertex="1">
          <mxGeometry x="655.5" y="1404" width="63.5" height="73" as="geometry" />
        </mxCell>
        <mxCell id="KZooT0G6KpFMYx8SuihJ-12" value="&lt;font color=&quot;#7f00ff&quot; face=&quot;Times New Roman&quot; style=&quot;font-size: 17px;&quot;&gt;&lt;span style=&quot;font-size: 17px;&quot;&gt;&lt;b style=&quot;font-size: 17px;&quot;&gt;output&lt;br style=&quot;font-size: 17px;&quot;&gt;Interactive motion type&lt;/b&gt;&lt;/span&gt;&lt;/font&gt;" style="text;html=1;strokeColor=none;fillColor=none;align=center;verticalAlign=middle;whiteSpace=wrap;rounded=0;fontSize=17;fontStyle=0" parent="1" vertex="1">
          <mxGeometry x="702" y="1256" width="90" height="57.5" as="geometry" />
        </mxCell>
        <mxCell id="LuwQSdoHa56ftmnp2NSQ-1" value="" style="shape=cube;whiteSpace=wrap;html=1;boundedLbl=1;backgroundOutline=1;darkOpacity=0.05;darkOpacity2=0.1;fillColor=#dae8fc;strokeColor=#6c8ebf;size=28;direction=south;fontSize=17;fontStyle=0" parent="1" vertex="1">
          <mxGeometry x="309" y="850" width="36" height="90" as="geometry" />
        </mxCell>
        <mxCell id="LuwQSdoHa56ftmnp2NSQ-2" value="" style="shape=cube;whiteSpace=wrap;html=1;boundedLbl=1;backgroundOutline=1;darkOpacity=0.05;darkOpacity2=0.1;fillColor=#fff2cc;strokeColor=#d6b656;size=41;direction=south;fontSize=17;fontStyle=0" parent="1" vertex="1">
          <mxGeometry x="235" y="830" width="50" height="148" as="geometry" />
        </mxCell>
        <mxCell id="LuwQSdoHa56ftmnp2NSQ-3" value="" style="shape=cube;whiteSpace=wrap;html=1;boundedLbl=1;backgroundOutline=1;darkOpacity=0.05;darkOpacity2=0.1;fillColor=#d5e8d4;strokeColor=#82b366;size=3;direction=south;fontSize=17;fontStyle=0" parent="1" vertex="1">
          <mxGeometry x="408" y="830" width="10" height="141" as="geometry" />
        </mxCell>
        <mxCell id="LuwQSdoHa56ftmnp2NSQ-4" value="" style="shape=cube;whiteSpace=wrap;html=1;boundedLbl=1;backgroundOutline=1;darkOpacity=0.05;darkOpacity2=0.1;fillColor=#d5e8d4;strokeColor=#82b366;size=3;direction=south;fontSize=17;fontStyle=0" parent="1" vertex="1">
          <mxGeometry x="482" y="886" width="10" height="27" as="geometry" />
        </mxCell>
        <mxCell id="LuwQSdoHa56ftmnp2NSQ-5" value="" style="shape=cube;whiteSpace=wrap;html=1;boundedLbl=1;backgroundOutline=1;darkOpacity=0.05;darkOpacity2=0.1;fillColor=#f8cecc;strokeColor=#b85450;size=9;direction=south;fontSize=17;fontStyle=0" parent="1" vertex="1">
          <mxGeometry x="263" y="888" width="8" height="35" as="geometry" />
        </mxCell>
        <mxCell id="LuwQSdoHa56ftmnp2NSQ-6" value="" style="endArrow=none;html=1;exitX=0;exitY=0;exitDx=8;exitDy=8;exitPerimeter=0;entryX=0.621;entryY=1.015;entryDx=0;entryDy=0;entryPerimeter=0;fontSize=17;fontStyle=0" parent="1" source="LuwQSdoHa56ftmnp2NSQ-5" target="LuwQSdoHa56ftmnp2NSQ-1" edge="1">
          <mxGeometry width="50" height="50" relative="1" as="geometry">
            <mxPoint x="360" y="1037" as="sourcePoint" />
            <mxPoint x="297" y="905" as="targetPoint" />
          </mxGeometry>
        </mxCell>
        <mxCell id="LuwQSdoHa56ftmnp2NSQ-7" value="" style="endArrow=none;html=1;exitX=0;exitY=0;exitDx=0;exitDy=0;exitPerimeter=0;entryX=0.621;entryY=0.993;entryDx=0;entryDy=0;entryPerimeter=0;fontSize=17;fontStyle=0" parent="1" source="LuwQSdoHa56ftmnp2NSQ-5" target="LuwQSdoHa56ftmnp2NSQ-1" edge="1">
          <mxGeometry width="50" height="50" relative="1" as="geometry">
            <mxPoint x="310" y="1007" as="sourcePoint" />
            <mxPoint x="309" y="905" as="targetPoint" />
          </mxGeometry>
        </mxCell>
        <mxCell id="LuwQSdoHa56ftmnp2NSQ-8" value="" style="endArrow=none;html=1;entryX=0;entryY=0;entryDx=35;entryDy=8;entryPerimeter=0;exitX=0.619;exitY=1.019;exitDx=0;exitDy=0;exitPerimeter=0;fontSize=17;fontStyle=0" parent="1" source="LuwQSdoHa56ftmnp2NSQ-1" target="LuwQSdoHa56ftmnp2NSQ-5" edge="1">
          <mxGeometry width="50" height="50" relative="1" as="geometry">
            <mxPoint x="300" y="902" as="sourcePoint" />
            <mxPoint x="280" y="1057" as="targetPoint" />
          </mxGeometry>
        </mxCell>
        <mxCell id="LuwQSdoHa56ftmnp2NSQ-9" value="" style="endArrow=none;html=1;entryX=0;entryY=0;entryDx=27;entryDy=0;entryPerimeter=0;exitX=0.619;exitY=0.998;exitDx=0;exitDy=0;exitPerimeter=0;fontSize=17;fontStyle=0" parent="1" source="LuwQSdoHa56ftmnp2NSQ-1" target="LuwQSdoHa56ftmnp2NSQ-5" edge="1">
          <mxGeometry width="50" height="50" relative="1" as="geometry">
            <mxPoint x="300" y="909" as="sourcePoint" />
            <mxPoint x="310" y="917" as="targetPoint" />
          </mxGeometry>
        </mxCell>
        <mxCell id="LuwQSdoHa56ftmnp2NSQ-10" value="&lt;font color=&quot;#7f00ff&quot; style=&quot;font-size: 17px;&quot;&gt;&lt;span style=&quot;font-size: 17px;&quot;&gt;depth=64&lt;br style=&quot;font-size: 17px;&quot;&gt;2*2 conv&lt;br style=&quot;font-size: 17px;&quot;&gt;size=14*4&lt;br style=&quot;font-size: 17px;&quot;&gt;conv1&lt;br style=&quot;font-size: 17px;&quot;&gt;conv2&lt;/span&gt;&lt;/font&gt;&lt;br style=&quot;font-size: 17px;&quot;&gt;" style="text;html=1;strokeColor=none;fillColor=none;align=center;verticalAlign=middle;whiteSpace=wrap;rounded=0;fontFamily=Times New Roman;fontSize=17;fontStyle=0;fillOpacity=50;opacity=0;glass=0;comic=0;perimeterSpacing=7;spacing=50;" parent="1" vertex="1">
          <mxGeometry x="210" y="1010.25" width="70" height="110" as="geometry" />
        </mxCell>
        <mxCell id="LuwQSdoHa56ftmnp2NSQ-11" value="&lt;font color=&quot;#7f00ff&quot; style=&quot;font-size: 17px;&quot;&gt;&lt;span style=&quot;font-size: 17px;&quot;&gt;maxpool&lt;br style=&quot;font-size: 17px;&quot;&gt;2*2&lt;br style=&quot;font-size: 17px;&quot;&gt;&lt;/span&gt;&lt;/font&gt;" style="text;html=1;strokeColor=none;fillColor=none;align=center;verticalAlign=middle;whiteSpace=wrap;rounded=0;fontFamily=Times New Roman;fontSize=17;fontStyle=0" parent="1" vertex="1">
          <mxGeometry x="285" y="1006" width="84" height="56" as="geometry" />
        </mxCell>
        <mxCell id="LuwQSdoHa56ftmnp2NSQ-12" value="&lt;font color=&quot;#7f00ff&quot; style=&quot;font-size: 17px;&quot;&gt;&lt;span style=&quot;font-size: 17px;&quot;&gt;&lt;font style=&quot;vertical-align: inherit; font-size: 17px;&quot;&gt;&lt;font style=&quot;vertical-align: inherit; font-size: 17px;&quot;&gt;size= 896 &lt;/font&gt;&lt;/font&gt;&lt;br style=&quot;font-size: 17px;&quot;&gt;&lt;font style=&quot;vertical-align: inherit; font-size: 17px;&quot;&gt;&lt;font style=&quot;vertical-align: inherit; font-size: 17px;&quot;&gt;FC1 &lt;/font&gt;&lt;/font&gt;&lt;br style=&quot;font-size: 17px;&quot;&gt;&lt;font style=&quot;vertical-align: inherit; font-size: 17px;&quot;&gt;&lt;font style=&quot;vertical-align: inherit; font-size: 17px;&quot;&gt;size= 128&lt;/font&gt;&lt;/font&gt;&lt;/span&gt;&lt;/font&gt;" style="text;html=1;strokeColor=none;fillColor=none;align=center;verticalAlign=middle;whiteSpace=wrap;rounded=0;direction=south;fontFamily=Times New Roman;fontSize=17;fontStyle=0" parent="1" vertex="1">
          <mxGeometry x="359" y="1002" width="110" height="80" as="geometry" />
        </mxCell>
        <mxCell id="LuwQSdoHa56ftmnp2NSQ-13" value="" style="shape=cube;whiteSpace=wrap;html=1;boundedLbl=1;backgroundOutline=1;darkOpacity=0.05;darkOpacity2=0.1;fillColor=#e1d5e7;strokeColor=#9673a6;size=41;direction=south;fontSize=17;fontStyle=0" parent="1" vertex="1">
          <mxGeometry x="148" y="860.5" width="36" height="97" as="geometry" />
        </mxCell>
        <mxCell id="LuwQSdoHa56ftmnp2NSQ-14" value="&lt;font style=&quot;font-size: 17px;&quot; color=&quot;#7f00ff&quot;&gt;&lt;span style=&quot;font-size: 17px; line-height: 110%;&quot;&gt;input&lt;br style=&quot;font-size: 17px;&quot;&gt;size=14*4&lt;/span&gt;&lt;/font&gt;" style="text;html=1;strokeColor=none;fillColor=none;align=center;verticalAlign=middle;whiteSpace=wrap;rounded=0;fontFamily=Times New Roman;fontSize=17;fontStyle=0;strokeOpacity=100;imageHeight=17;" parent="1" vertex="1">
          <mxGeometry x="104" y="1010" width="80" height="50" as="geometry" />
        </mxCell>
        <mxCell id="LuwQSdoHa56ftmnp2NSQ-15" value="" style="shape=flexArrow;endArrow=classic;html=1;endWidth=15.428571428571429;endSize=4;startWidth=15.428571428571429;startSize=6.668571428571428;width=10;fontSize=17;fontStyle=0" parent="1" edge="1">
          <mxGeometry width="50" height="50" relative="1" as="geometry">
            <mxPoint x="423" y="900" as="sourcePoint" />
            <mxPoint x="475" y="900" as="targetPoint" />
          </mxGeometry>
        </mxCell>
        <mxCell id="LuwQSdoHa56ftmnp2NSQ-16" value="" style="endArrow=classic;html=1;endSize=4;fontSize=17;fontStyle=0" parent="1" edge="1">
          <mxGeometry width="50" height="50" relative="1" as="geometry">
            <mxPoint x="241" y="1015" as="sourcePoint" />
            <mxPoint x="241" y="978" as="targetPoint" />
          </mxGeometry>
        </mxCell>
        <mxCell id="LuwQSdoHa56ftmnp2NSQ-17" value="" style="endArrow=classic;html=1;endSize=4;fontSize=17;fontStyle=0" parent="1" edge="1">
          <mxGeometry width="50" height="50" relative="1" as="geometry">
            <mxPoint x="331" y="1015" as="sourcePoint" />
            <mxPoint x="331" y="978" as="targetPoint" />
          </mxGeometry>
        </mxCell>
        <mxCell id="LuwQSdoHa56ftmnp2NSQ-18" value="" style="endArrow=classic;html=1;endSize=4;fontSize=17;fontStyle=0" parent="1" edge="1">
          <mxGeometry width="50" height="50" relative="1" as="geometry">
            <mxPoint x="148" y="1015" as="sourcePoint" />
            <mxPoint x="148" y="978" as="targetPoint" />
          </mxGeometry>
        </mxCell>
        <mxCell id="LuwQSdoHa56ftmnp2NSQ-20" value="" style="shape=flexArrow;endArrow=classic;html=1;endWidth=15.428571428571429;endSize=4;startWidth=15.428571428571429;startSize=6.668571428571428;width=10;entryX=0;entryY=0;entryDx=64.5;entryDy=10;entryPerimeter=0;fontSize=17;fontStyle=0" parent="1" edge="1">
          <mxGeometry width="50" height="50" relative="1" as="geometry">
            <mxPoint x="189.5" y="904.5" as="sourcePoint" />
            <mxPoint x="229.5" y="904" as="targetPoint" />
          </mxGeometry>
        </mxCell>
        <mxCell id="LuwQSdoHa56ftmnp2NSQ-21" value="" style="endArrow=classic;html=1;endSize=4;fontSize=17;fontStyle=0" parent="1" edge="1">
          <mxGeometry width="50" height="50" relative="1" as="geometry">
            <mxPoint x="413" y="1015" as="sourcePoint" />
            <mxPoint x="413" y="978" as="targetPoint" />
          </mxGeometry>
        </mxCell>
        <mxCell id="LuwQSdoHa56ftmnp2NSQ-22" value="&lt;span style=&quot;font-size: 17px;&quot;&gt;&lt;font color=&quot;#7f00ff&quot; face=&quot;Times New Roman&quot; style=&quot;font-size: 17px;&quot;&gt;size=128&lt;br style=&quot;font-size: 17px;&quot;&gt;FC2&lt;br style=&quot;font-size: 17px;&quot;&gt;size=4&lt;br style=&quot;font-size: 17px;&quot;&gt;softmax&lt;/font&gt;&lt;/span&gt;" style="text;html=1;strokeColor=none;fillColor=none;align=center;verticalAlign=middle;whiteSpace=wrap;rounded=0;fontSize=17;fontStyle=0" parent="1" vertex="1">
          <mxGeometry x="454.5" y="1003.25" width="65" height="95.5" as="geometry" />
        </mxCell>
        <mxCell id="LuwQSdoHa56ftmnp2NSQ-23" value="" style="endArrow=classic;html=1;endSize=4;fontSize=17;fontStyle=0" parent="1" edge="1">
          <mxGeometry width="50" height="50" relative="1" as="geometry">
            <mxPoint x="487" y="1015" as="sourcePoint" />
            <mxPoint x="487" y="978" as="targetPoint" />
          </mxGeometry>
        </mxCell>
        <mxCell id="LuwQSdoHa56ftmnp2NSQ-24" value="" style="shape=flexArrow;endArrow=classic;html=1;endWidth=15.428571428571429;endSize=4;startWidth=15.428571428571429;startSize=6.668571428571428;width=10;entryX=0;entryY=0;entryDx=64.5;entryDy=10;entryPerimeter=0;fontSize=17;fontStyle=0" parent="1" edge="1">
          <mxGeometry width="50" height="50" relative="1" as="geometry">
            <mxPoint x="497" y="900" as="sourcePoint" />
            <mxPoint x="537" y="899.5" as="targetPoint" />
          </mxGeometry>
        </mxCell>
        <mxCell id="LuwQSdoHa56ftmnp2NSQ-25" value="&lt;font color=&quot;#7f00ff&quot; face=&quot;Times New Roman&quot; style=&quot;font-size: 17px;&quot;&gt;&lt;span style=&quot;font-size: 17px;&quot;&gt;output&lt;br style=&quot;font-size: 17px;&quot;&gt;Interactive motion type&lt;/span&gt;&lt;/font&gt;&lt;br style=&quot;font-size: 17px;&quot;&gt;" style="text;html=1;strokeColor=none;fillColor=none;align=center;verticalAlign=middle;whiteSpace=wrap;rounded=0;fontSize=17;fontStyle=0" parent="1" vertex="1">
          <mxGeometry x="547" y="852" width="90" height="97" as="geometry" />
        </mxCell>
        <mxCell id="LuwQSdoHa56ftmnp2NSQ-28" value="" style="endArrow=classic;html=1;endSize=4;fontSize=17;fontStyle=0" parent="1" edge="1">
          <mxGeometry width="50" height="50" relative="1" as="geometry">
            <mxPoint x="682.75" y="1395" as="sourcePoint" />
            <mxPoint x="682.2500000000001" y="1357" as="targetPoint" />
          </mxGeometry>
        </mxCell>
        <mxCell id="LuwQSdoHa56ftmnp2NSQ-29" value="" style="shape=flexArrow;endArrow=classic;html=1;endWidth=15.428571428571429;endSize=4;startWidth=15.428571428571429;startSize=6.668571428571428;width=10;entryX=0;entryY=0;entryDx=64.5;entryDy=10;entryPerimeter=0;fontSize=17;fontStyle=0" parent="1" edge="1">
          <mxGeometry width="50" height="50" relative="1" as="geometry">
            <mxPoint x="638" y="1279.6600000000003" as="sourcePoint" />
            <mxPoint x="678" y="1279.16" as="targetPoint" />
          </mxGeometry>
        </mxCell>
        <mxCell id="FzZDRSgQm0uT2oVsYp2x-3" value="" style="shape=flexArrow;endArrow=classic;html=1;endWidth=15.428571428571429;endSize=4;startWidth=15.428571428571429;startSize=6.668571428571428;width=10;fontSize=17;fontStyle=0" edge="1" parent="1">
          <mxGeometry width="50" height="50" relative="1" as="geometry">
            <mxPoint x="351" y="900" as="sourcePoint" />
            <mxPoint x="403" y="900" as="targetPoint" />
          </mxGeometry>
        </mxCell>
      </root>
    </mxGraphModel>
  </diagram>
</mxfile>
